<svg xmlns="http://www.w3.org/2000/svg" viewBox="0 0 752 752"><path d="M363.16 366.48a1.4 1.4 0 0 0-1.69 1 1.4 1.4 0 0 0 1 1.69c4.34 1.1 6.52 5.54 6.05 9-.48 3.58-3.2 7.15-7.45 9.83-8.2 5.16-20.4 6.2-32.64 2.76-5.22-1.47-9.18-3.34-12.1-5.74a17.1 17.1 0 0 1-2.96-3.13 30.48 30.48 0 0 0 4.96-5.7c.09-.13.14-.28.18-.43.18-.1.34-.21.47-.38 1.09-1.4 1.14-3.33.15-5.02a5.5 5.5 0 0 0-5.47-2.74c-3.53.54-5.45 4.04-5.52 7.23-.05 2.18.5 4.37 1.57 6.45-6.04 4.55-13.05 5.99-18.22 6.34 3.37-4.62 5.38-9.97 5.43-15.41.13-12.38-10.12-24.33-23.34-27.2-8.71-1.9-23.25-.51-33.02 5.79-5.26 3.38-8.48 7.72-9.59 12.86-2.36 11 2.96 20.74 13.56 24.83 7.82 3 17.9 2.29 24.83-3.91 3.04 3 8.95 5.21 15.88 5.78h.09a31.95 31.95 0 0 1-12.21 6.97c-15.23 4.64-31.76-1.4-42.95-7.3a263.9 263.9 0 0 1-13.94-8.08c-8.05-4.9-16.37-9.95-25.57-13.36-4.69-1.74-16.38-5.12-23.73 1-4.06 3.37-5.24 9.09-2.77 13.3 2.57 4.39 8.9 6.5 13.8 4.6a9.33 9.33 0 0 0 5.55-5.97c.7-2.36.35-4.79-.98-6.67a1.39 1.39 0 0 0-2.27 1.6 4.83 4.83 0 0 1 .6 4.28 6.55 6.55 0 0 1-3.9 4.17c-3.65 1.41-8.51-.18-10.41-3.42-1.79-3.05-.86-7.24 2.16-9.76 6.23-5.2 16.75-2.1 20.98-.53 8.95 3.32 17.16 8.3 25.1 13.13 4.55 2.77 9.26 5.64 14.09 8.18 8.72 4.59 20.58 9.26 32.76 9.26 4.1 0 8.23-.53 12.29-1.76a34.46 34.46 0 0 0 15.18-9.51c5.56-.06 14.5-1.2 22.1-6.85a19.74 19.74 0 0 0 3.34 3.51c3.23 2.65 7.52 4.7 13.11 6.26a54.8 54.8 0 0 0 14.8 2.1c7.62 0 14.64-1.76 20.08-5.18 4.94-3.12 8.12-7.4 8.71-11.8a11.04 11.04 0 0 0-8.09-12.07zm-93.45 13.7c-.24-.43-.5-.86-.78-1.3-1.9-3.04-2.9-5.08-.15-7.68 1.34-.35 2.29-.24 2.78.38 1.13 1.42.5 4.99-.26 6.3-.49.83-1.03 1.57-1.59 2.3zm18.2 7.55c-.97-.02-1.8-.06-2.43-.11-6.2-.51-11.71-2.51-14.18-5a22 22 0 0 0 2.4-3.36c1.14-1.96 2.12-6.8.04-9.41-.9-1.14-2.7-2.27-6.07-1.25l-.01.01c-.09.03-.16.09-.24.13-.09.05-.18.08-.25.15h-.01c-4.98 4.4-2.33 8.64-.58 11.45.44.7.85 1.35 1.11 1.94l.03.06c-6.11 5.63-15.16 6.29-22.18 3.58-7.36-2.84-14.34-10.02-11.84-21.65.94-4.4 3.76-8.14 8.38-11.12 9.14-5.9 22.75-7.18 30.92-5.41 11.98 2.6 21.28 13.34 21.16 24.45-.06 5.56-2.39 11.02-6.25 15.54zm24.03-8.3a10.63 10.63 0 0 1-1.01-4.52c.04-2.02 1.14-4.23 3.16-4.54 1.15-.17 2.2.6 2.66 1.4.2.34.6 1.2.05 1.91-.13.16-.2.34-.25.53-.2.11-.38.24-.52.45a28.07 28.07 0 0 1-4.08 4.78zm273.12-9.81c-7.36-6.13-19.04-2.75-23.73-1-9.2 3.4-17.53 8.47-25.58 13.37a261.31 261.31 0 0 1-13.94 8.08c-11.18 5.89-27.71 11.93-42.94 7.3a31.8 31.8 0 0 1-12.21-6.97h.08c6.93-.57 12.85-2.8 15.89-5.79 6.93 6.2 17 6.92 24.83 3.91 10.6-4.08 15.92-13.83 13.56-24.82-1.1-5.15-4.33-9.48-9.59-12.87-9.77-6.3-24.3-7.69-33.02-5.79-13.22 2.88-23.47 14.82-23.34 27.2.06 5.44 2.06 10.8 5.44 15.41-5.17-.35-12.18-1.78-18.23-6.33a13.5 13.5 0 0 0 1.58-6.45c-.07-3.18-1.99-6.68-5.52-7.23a5.5 5.5 0 0 0-5.47 2.74 4.4 4.4 0 0 0 .15 5.02c.13.16.3.29.47.38.04.15.1.3.18.44 1.5 2.22 3.18 4.1 4.96 5.7a16.85 16.85 0 0 1-2.96 3.12c-2.92 2.4-6.88 4.28-12.1 5.74-12.24 3.43-24.44 2.4-32.64-2.77-4.25-2.67-6.96-6.25-7.45-9.81-.46-3.47 1.72-7.9 6.05-9.01a1.39 1.39 0 0 0-.69-2.7 11.07 11.07 0 0 0-8.1 12.08c.58 4.38 3.76 8.68 8.7 11.8 5.45 3.42 12.46 5.18 20.08 5.18a55 55 0 0 0 14.8-2.1c5.6-1.57 9.88-3.62 13.11-6.26a19.88 19.88 0 0 0 3.35-3.51c7.6 5.65 16.54 6.78 22.1 6.84a34.45 34.45 0 0 0 15.18 9.51 42.05 42.05 0 0 0 12.28 1.76c12.18 0 24.06-4.67 32.77-9.26 4.82-2.54 9.53-5.4 14.08-8.16 7.94-4.83 16.15-9.82 25.1-13.14 4.24-1.57 14.75-4.66 21 .53 3 2.52 3.93 6.71 2.15 9.77-1.9 3.23-6.76 4.83-10.42 3.41a6.54 6.54 0 0 1-3.88-4.17 4.83 4.83 0 0 1 .59-4.28c.44-.62.3-1.49-.33-1.93a1.4 1.4 0 0 0-1.94.33 7.63 7.63 0 0 0-.98 6.67 9.35 9.35 0 0 0 5.54 5.97c4.9 1.9 11.23-.21 13.8-4.6 2.48-4.22 1.29-9.94-2.76-13.31zm-145 9.82a27.2 27.2 0 0 1-4.09-4.79c-.13-.2-.32-.33-.52-.44a1.4 1.4 0 0 0-.24-.53c-.55-.71-.15-1.57.05-1.9.46-.8 1.5-1.58 2.66-1.4 2.02.3 3.12 2.51 3.16 4.53.03 1.49-.34 3.03-1.02 4.53zm42.23.74a19.9 19.9 0 0 1-1.58-2.3c-.76-1.32-1.4-4.88-.27-6.3.5-.62 1.44-.73 2.79-.38 2.76 2.6 1.75 4.63-.15 7.67-.29.45-.54.87-.79 1.3zm-18.2 7.56c-3.86-4.52-6.2-9.99-6.25-15.54-.12-11.11 9.18-21.85 21.16-24.46 8.16-1.78 21.78-.48 30.92 5.42 4.62 2.97 7.43 6.71 8.38 11.12 2.5 11.63-4.48 18.8-11.84 21.65-7.03 2.7-16.07 2.05-22.18-3.58l.03-.07c.27-.58.67-1.24 1.11-1.94 1.76-2.8 4.4-7.04-.58-11.44h-.01c-.07-.07-.16-.1-.24-.14l-.25-.14h-.02c-3.38-1.03-5.16.1-6.06 1.24-2.08 2.62-1.1 7.45.04 9.41a21.85 21.85 0 0 0 2.4 3.36c-2.47 2.49-7.98 4.49-14.19 5-.62.04-1.45.09-2.43.1z"/><path d="M379.32 372.49c5.09-7.47 16.43-15 30.29-15a1.39 1.39 0 0 0 0-2.78c-14.88 0-27.09 8.15-32.58 16.22-.34.48-.65.98-.98 1.47-.32-.5-.64-.99-.98-1.47-5.5-8.08-17.7-16.22-32.58-16.22a1.39 1.39 0 0 0 0 2.78c13.86 0 25.2 7.53 30.3 15 .57.84 1.1 1.67 1.63 2.5-3.5 5.77-6.3 12.24-6.3 20.13 0 4.56 1.33 8.33 3.72 10.62.85.8 1.8 1.36 2.77 1.68.23.18.5.3.8.32a5 5 0 0 0 .25 0c.13 0 .26-.02.39-.04.13.01.26.05.4.05h.24c.3-.02.58-.15.8-.33a7.39 7.39 0 0 0 2.77-1.68c2.4-2.3 3.71-6.07 3.71-10.62 0-7.9-2.8-14.36-6.29-20.14.53-.82 1.07-1.65 1.64-2.49zm1.88 22.63c0 3.74-1.05 6.88-2.86 8.61-.72.7-1.5 1.1-2.28 1.2a4.2 4.2 0 0 1-2.3-1.2c-1.8-1.74-2.85-4.88-2.85-8.61 0-6.51 1.97-11.95 5.14-17.45 3.18 5.5 5.14 10.94 5.14 17.45z"/><path d="M376.75 367.88c3.42 0 13.11-8.94 13.11-15.46 0-3.68-1.47-6.54-3.94-7.62-1.83-.8-4.87-.96-9.18 2.62-3.19-2.55-6.45-3.35-9.08-2.19-2.52 1.11-4.02 3.8-4.02 7.19 0 6.8 8.89 15.46 13.11 15.46zm-7.97-20.1c.44-.2.93-.3 1.44-.3 1.64 0 3.6.97 5.6 2.8.53.49 1.34.49 1.87 0 2.85-2.61 5.44-3.68 7.12-2.94 1.4.62 2.28 2.57 2.28 5.08 0 5.04-8.57 12.49-10.34 12.69-2.63 0-10.34-7.49-10.34-12.7 0-2.25.89-3.98 2.37-4.63z"/></svg>