<svg xmlns="http://www.w3.org/2000/svg" viewBox="0 0 752 752"><path d="M587 374.3a6.1 6.1 0 0 0-5.5-1.4 5.1 5.1 0 0 0-3.7 3.1 1 1 0 0 0 .6 1.4 1 1 0 0 0 1.3-.6c.3-1 1.2-1.6 2.3-1.9a4 4 0 0 1 3.6.9c1.7 1.6 2 4.7.4 7-1.4 2-4 3.3-7 3.6-2.6.2-5.2-.3-8.1-1.1a22 22 0 0 0-8.7-10.4 1 1 0 0 0-1.6.8c0 2.4 1 5 3 7l.6.6a431.5 431.5 0 0 1-32.7-12v-.3a28.9 28.9 0 0 0-9.7-15.9 1 1 0 0 0-1.7.7c-.3 2.6.1 5.2 1 7.6-3-3-6.6-5.5-10.5-7.3a1 1 0 0 0-1.1.1c-.3.3-.5.7-.3 1.1 1 3.5 3.4 6 5.4 7.8a98 98 0 0 0-20-5h-.1c-2.6-4.6-7-8-12-9.5a1 1 0 0 0-1.2 1.4c1.3 3.2 3.7 5.9 6.6 7.6-4.5-.1-10 .2-15 2.4-6 2.7-10.1 7.7-10.8 13.2v2.8a1174.7 1174.7 0 0 1-17.4-6.7v-.3a28.9 28.9 0 0 0-9.8-15.9 1 1 0 0 0-1.7.7c-.2 2.6.2 5.2 1.1 7.6-3-3-6.6-5.5-10.5-7.3a1 1 0 0 0-1.1.1c-.4.3-.5.7-.4 1.1 1.1 3.5 3.4 6 5.5 7.8a98 98 0 0 0-20.1-5 21 21 0 0 0-12-9.5 1 1 0 0 0-1.2 1.4c1.3 3.2 3.7 5.9 6.6 7.6-4.5-.1-10 .2-15.1 2.4a18.4 18.4 0 0 0-10 10.1c-1.6-4.2-5.2-8-10-10-5-2.3-10.5-2.6-15-2.5 2.8-1.7 5.2-4.4 6.6-7.5a1 1 0 0 0-1.3-1.4c-5 1.4-9.4 4.9-12 9.4a98 98 0 0 0-20 5c2-1.7 4.3-4.3 5.4-7.8a1 1 0 0 0-1.5-1.2 38 38 0 0 0-10.5 7.3c1-2.4 1.3-5 1-7.6a1 1 0 0 0-1.7-.7 29 29 0 0 0-9.7 16.2l-8.3 3.3c-3 1-6 2.2-9 3.4v-2.8a17.4 17.4 0 0 0-10.8-13.2c-5-2.2-10.6-2.5-15.1-2.4a16 16 0 0 0 6.6-7.5 1 1 0 0 0-1.2-1.4c-5 1.4-9.4 4.9-12 9.4a98 98 0 0 0-20.1 5c2-1.7 4.4-4.3 5.4-7.8a1 1 0 0 0-1.4-1.2c-4 1.8-7.5 4.3-10.6 7.3 1-2.4 1.4-5 1.1-7.6a1 1 0 0 0-1.7-.7 29 29 0 0 0-9.7 16.2l-8.4 3.3c-8 3-16.2 6.2-24.3 8.7l.7-.6c1.9-2 3-4.6 2.9-7a1 1 0 0 0-1.6-.8 22 22 0 0 0-8.7 10.4c-3 .8-5.5 1.3-8 1-3-.2-5.7-1.5-7-3.5-1.6-2.3-1.4-5.4.3-7a4 4 0 0 1 3.6-.8c1.1.2 2 .9 2.3 1.8a1 1 0 1 0 2-.8c-.6-1.5-2-2.6-3.8-3a6 6 0 0 0-5.5 1.3c-2.5 2.3-2.8 6.5-.7 9.6 1.8 2.6 4.9 4.2 8.6 4.5 3 .3 5.9-.3 9.3-1.2a341 341 0 0 0 30.7-10.7l2.3-1c.2.2.4.4.7.4h4.5a54 54 0 0 0 16.1-1.9c.5-.1.8-.5.8-1s-.3-.9-.8-1c-3.1-.8-6.4-1-9.6-.8l.8-.3 6.7-2.6a25.3 25.3 0 0 0 17.1 2.7 1 1 0 0 0 .2-2 51.4 51.4 0 0 0-10.2-3 82.9 82.9 0 0 1 21-4.2 34 34 0 0 1 15.9 2.1c5.2 2.3 8.9 6.9 9.5 11.6l-.1 3.3-13.2 4.5.7-.6c2-2 3-4.6 3-7a1 1 0 0 0-1.7-.8 22 22 0 0 0-8.6 10.4c-3 .8-5.6 1.3-8.1 1a9 9 0 0 1-7-3.6c-1.6-2.2-1.4-5.3.3-7a4 4 0 0 1 3.6-.8c1.2.3 2 1 2.3 1.9a1 1 0 1 0 2-.8c-.6-1.5-2-2.7-3.8-3.1a6 6 0 0 0-5.5 1.3c-2.5 2.4-2.8 6.6-.6 9.7l.8 1-6-.9a1 1 0 0 0-1.1.7c-.2.4 0 .8.3 1.1a36 36 0 0 0 8.5 5.4c-4.2-.3-8.5-.1-12.6.7a1 1 0 0 0-.4 1.9 16.6 16.6 0 0 0 10.8 2.9c3.8-.2 7.5-1.2 10.8-2l.2-.2 4.3.3c4 0 7.6-.7 10.8-1.8a18.5 18.5 0 0 0-3.3 7.1c-.1.4 0 .8.4 1 .1.2.4.3.6.3.2 0 .3 0 .5-.2a14 14 0 0 0 7-10.9v-.1c3.4-2.6 5.8-6.1 6.8-9.9a1149 1149 0 0 0 12.4-4.7l.7.2h4.5c5 0 10.7-.1 16.2-1.8.4-.1.7-.5.7-1s-.3-.9-.8-1c-3-.8-6.3-1-9.6-.8l.8-.3 6.8-2.6a25.3 25.3 0 0 0 17 2.7 1 1 0 0 0 .2-2 51.4 51.4 0 0 0-10.2-3 82.9 82.9 0 0 1 21-4.2 34 34 0 0 1 15.9 2.1c5.2 2.3 9 6.8 9.5 11.6.6 5.2-2.6 11-8 14-3.4 2-7.8 3.1-12.8 3.1a35 35 0 0 0-21.1-8.6 1 1 0 0 0-1 .6c-.2.5-.1 1 .2 1.2 2.6 2.2 5.5 4 8.5 5.4-4.2-.4-8.4-.1-12.5.7a1 1 0 0 0-.4 1.9 16.6 16.6 0 0 0 10.8 2.9c3.8-.2 7.5-1.2 10.7-2l.2-.2a33 33 0 0 0 15.1-1.5 18.5 18.5 0 0 0-3.3 7.1c-.1.4 0 .8.4 1l.6.3c.2 0 .4 0 .5-.2a14 14 0 0 0 7-10.9v-.1c3-2.2 5.3-5.3 6.4-8.5 1.1 3.2 3.4 6.3 6.4 8.5v.1a14 14 0 0 0 7 11 1 1 0 0 0 1.1-.1c.3-.3.5-.7.4-1a17 17 0 0 0-3.3-7.2 33 33 0 0 0 10.8 1.7c1.3 0 2.8 0 4.2-.2h.1l.2.1c3.2 1 7 2 10.7 2l.9.1c3.9 0 7.4-1 10-3a1 1 0 0 0-.5-1.8c-4-.8-8.3-1-12.5-.7 3-1.4 6-3.2 8.5-5.4.3-.3.5-.7.3-1.2a1 1 0 0 0-1-.6 35 35 0 0 0-21.1 8.5v.1a26 26 0 0 1-13-3c-5.3-3.1-8.5-9-7.9-14.1.6-4.8 4.3-9.3 9.5-11.6a34 34 0 0 1 16-2.1c7.3.3 14.2 2 21 4.1l-2.1.3c-2.9.7-5.6 1.8-8.2 2.8a1 1 0 0 0 .2 2 25 25 0 0 0 17-2.7l6.8 2.6c.3 0 .5.2.8.3a31 31 0 0 0-9.6.8 1 1 0 0 0 0 2 56 56 0 0 0 16.1 1.9h4.5l.7-.3 2.3.9 10.1 3.8c1 3.8 3.4 7.3 6.9 9.9v.1a14 14 0 0 0 7 11 1 1 0 0 0 1-.1c.4-.3.5-.7.4-1a17 17 0 0 0-3.3-7.2 33 33 0 0 0 10.8 1.8l4.3-.3.2.1c3.3 1 7 2 10.8 2l.8.1c4 0 7.4-1 10-3a1 1 0 0 0-.4-1.8c-4.1-.8-8.4-1-12.6-.7 3-1.4 6-3.2 8.5-5.4.4-.2.5-.7.3-1.2a1 1 0 0 0-1-.6c-1.9.2-4 .5-6 1l.8-1c2-3.2 1.8-7.4-.7-9.8a6.1 6.1 0 0 0-5.5-1.3 5.1 5.1 0 0 0-3.8 3.1 1 1 0 0 0 .6 1.4 1 1 0 0 0 1.4-.6c.3-1 1.1-1.6 2.3-1.9a4 4 0 0 1 3.6.9c1.7 1.6 1.9 4.7.3 7-1.4 2-4 3.3-7 3.6-2.5.2-5-.3-8-1.1a22 22 0 0 0-8.7-10.5 1 1 0 0 0-1.6.8c0 2.5 1 5 2.9 7l.7.7-13.2-4.5c-.1-1.1-.2-2.3 0-3.3.5-4.8 4.2-9.3 9.4-11.6a34 34 0 0 1 16-2.1c7.4.4 14.2 2 21 4.1l-2 .3c-3 .7-5.7 1.8-8.3 2.8a1 1 0 0 0 .2 2 25 25 0 0 0 17-2.7l6.8 2.6c.3 0 .6.2.8.3a31 31 0 0 0-9.6.8 1 1 0 0 0 0 2 56 56 0 0 0 16.1 1.9h4.5c.3 0 .5-.2.7-.3l2.3.9c10 3.8 20.5 7.8 30.7 10.6a24 24 0 0 0 9.3 1.3c3.7-.3 6.8-2 8.6-4.5 2.1-3 1.8-7.3-.7-9.7zm-402.6 9a20 20 0 0 1 4.5-5.3 9 9 0 0 1-2 3.3 14 14 0 0 1-2.5 2zm44.3-10.1h1.8a63 63 0 0 1-8 .6c2-.4 4.1-.6 6.2-.6zm-.8-8.5c-1.2 2-2.8 3.6-4.8 4.8 1.3-4.2 3.6-8.1 6.8-11.3a15 15 0 0 1-2 6.5zm2.3 2.5a36 36 0 0 1 9.5-8 16 16 0 0 1-4.5 5 31.8 31.8 0 0 1-5 3zm12.8 1.1 3.9 1.1c-3 0-6-.5-8.7-1.5 1.5-.1 3.1 0 4.8.4zm17.8-9.3c1.8-2.3 4-4.2 6.7-5.4a15 15 0 0 1-6.7 5.4zm15 19a9 9 0 0 1-2 3.3 12 12 0 0 1-2.6 2 20 20 0 0 1 4.6-5.3zm-24.3 16.6h-.8c-1.8 0-4-.2-6.3-1.1 4.4-.6 8.8-.5 13.1.2-2 .5-4 .8-6 1zm-1.9-8c4.2.7 9 2.3 13.2 5.3a37 37 0 0 1-13.2-5.3zm27.7 10.9c.7-1.5 1.6-3 2.6-4.2-.5 1.6-1.4 3-2.6 4.2zm2.6-8a25.5 25.5 0 0 1-12.8 3.2l-.1-.1c-1.8-1.7-3.7-3-5.7-4.1 2.5 0 5-.6 7.7-1.3 6-1.7 12-3.8 18.1-6a16.5 16.5 0 0 1-7.2 8.4zm35.7-16.3h1.8a63 63 0 0 1-8 .6c2-.4 4-.6 6.2-.6zm-.9-8.5c-1.2 2-2.8 3.6-4.7 4.8 1.2-4.2 3.6-8.1 6.7-11.3-.1 2.3-.8 4.5-2 6.5zm2.3 2.5a36 36 0 0 1 9.5-8c-1.2 2.3-3 3.9-4.5 5a31.4 31.4 0 0 1-5 3zm12.9 1.1 3.8 1.1c-3 0-5.9-.5-8.6-1.5 1.5-.1 3 0 4.8.4zm17.7-9.3c1.8-2.3 4.1-4.2 6.7-5.4a15 15 0 0 1-6.7 5.4zm-9.3 35.6h-.8c-1.7 0-4-.2-6.3-1.1 4.4-.6 8.9-.5 13.2.2-2 .5-4 .8-6.1 1zm-1.8-8a33 33 0 0 1 13.2 5.3c-4.7-.9-9.3-2.7-13.2-5.3zm27.7 10.9a14 14 0 0 1 2.6-4.2 13 13 0 0 1-2.6 4.2zm56.6-4a16.4 16.4 0 0 1-7 1.1c-2.1 0-4.2-.4-6.2-.9 4.3-.7 8.8-.8 13.2-.2zm-5.3-6.9c-4 2.6-8.5 4.4-13.1 5.3 4.2-3 9-4.6 13.1-5.3zM388 397.5c-1.2-1.2-2-2.6-2.7-4.2 1.1 1.3 2 2.7 2.7 4.2zm9.8-43.9c2.6 1.2 4.9 3 6.7 5.4-2.7-1.1-5-3-6.7-5.4zm20.6 15.8c1.3-.4 2.5-.8 3.9-1 1.6-.5 3.2-.6 4.7-.5-2.7 1-5.6 1.6-8.6 1.5zm11.7-5.2a14 14 0 0 1-4.5-5 36 36 0 0 1 9.5 8c-1.7-.9-3.5-1.8-5-3zm7.3.5c-1.2-2-1.9-4.2-2-6.5 3.1 3.2 5.5 7 6.8 11.3-2-1.2-3.6-2.8-4.8-4.8zm-2.6 8.5a31 31 0 0 1 8 .6c-2.6 0-5.3-.2-8-.6zm40 24.3a13 13 0 0 1-2.6-4.2c1 1.3 2 2.7 2.6 4.2zm32.9-4a16.4 16.4 0 0 1-7 1.1c-2.1 0-4.2-.4-6.1-.9 4.3-.7 8.7-.8 13.1-.2zm-5.2-6.9a37 37 0 0 1-13.2 5.3c4.2-3 9-4.6 13.2-5.3zm-26.2-8.6a20 20 0 0 1 4.6 5.4 14 14 0 0 1-2.6-2.1c-1-1-1.6-2.1-2-3.3zm6.8 9.2a30 30 0 0 0 7.6 1.3c-2 1-3.8 2.4-5.6 4v.2c-5.1 0-9.4-1-13-3.1a17 17 0 0 1-7.1-8.4c6 2.2 12 4.3 18 6zm1.5-33.6c2.6 1.2 5 3 6.7 5.4-2.7-1.1-5-3-6.7-5.4zm20.6 15.8a28 28 0 0 1 3.9-1c1.7-.5 3.3-.6 4.8-.5a23 23 0 0 1-8.7 1.5zm11.7-5.2a16 16 0 0 1-4.5-5 36 36 0 0 1 9.5 8c-1.7-.9-3.4-1.8-5-3zm7.3.5a15 15 0 0 1-2-6.5c3.2 3.2 5.5 7 6.8 11.3-2-1.2-3.6-2.8-4.8-4.8zm-2.6 8.5a31 31 0 0 1 8 .6 63 63 0 0 1-8-.6zm43.6 8a9 9 0 0 1-2-3.2 20 20 0 0 1 4.5 5.4 14 14 0 0 1-2.5-2.1z"/></svg>