<svg xmlns="http://www.w3.org/2000/svg" viewBox="0 0 752 752"><path d="M583.9 361c-5.8-5.8-19.2-10.4-24.5-1.3-1.3 2.3 2.3 4.5 3.7 2.1 2.1-3.7 7.4-3.3 10.9-2.1 4 1.4 7.9 4.4 9.8 8.3 2.6 5.4.1 12.4-4.1 16.2a24.7 24.7 0 0 1-14.3 5.3 65 65 0 0 1-14.4-.4 18 18 0 0 0 3.4-4.3c4.2-8 1.3-17.5-5.2-23.3-8-7-19.5-7.1-29.3-4.4-2.7.8-1.5 4.9 1.1 4.1 9-2.5 20-2.5 26.7 4.9 5.5 5.9 6.1 14.8 0 20.3l-2.4 1.8a111 111 0 0 1-15.2-4c-6.3-2.2-12.3-5.3-18.2-8.5-16.9-9.1-34.5-19.9-54.3-19.7a38 38 0 0 0-16.7 3.7 71.5 71.5 0 0 0-29-2c-8.7 1.2-17.7 5-22.6 12.5-4.7 7.3-5.1 18.6 2.3 24.2 6.2 4.7 16 4.1 20.3-2.7 1.5-2.4-2.2-4.5-3.7-2.2-3.8 6-13.4 4.2-16.6-1.5-4.3-7.8.8-17.2 7.7-21.5a45 45 0 0 1 27.7-5c3.2.2 6.4.7 9.5 1.4a16 16 0 0 0-3.3 5.1c-2.8 7.5 2.8 17.5 11.3 16.3 2.7-.4 1.6-4.5-1-4.1-3.6.5-6-3.3-6.6-6.3-.7-4 1.5-7.5 4.7-9.6 5.3 1.5 10.5 3.4 15.5 5.6 18.6 8 36 19.2 55.7 24.2 8 2 16.3 3.2 24.5 1.6 3-.6 6-1.6 8.7-3 3 .5 6 .9 9 1 11 .9 24.7-.3 31-10.6 1.8-2.8 2.7-6 3-9.3a16 16 0 0 0-5.1-12.8zm-56.6 31.2a86.1 86.1 0 0 1-28.4-7.2c-17.5-7.2-33.6-17.4-51.6-23.4a45 45 0 0 1 21.9-.1c19.2 4 35.1 16.1 52.7 24a96.1 96.1 0 0 0 16.5 5.6c-3.7 1-7.6 1.3-11.1 1.1zm-209.8-34c-2.2.4-4.4 1-6.5 1.5-3-1.6-6.6-2.6-9.7-3-19.8-3-38.3 6.5-55.1 15.6-6.8 3.8-13.6 7.8-20.8 10.6a105.5 105.5 0 0 1-18.6 5.3c-2.7-1.7-5-4-6.1-7a14 14 0 0 1 1.6-12.7c6.2-9.6 18.7-10 28.7-7.3 2.6.8 3.7-3.3 1.1-4-8.7-2.5-19.1-2.8-27 2.5-6.5 4.5-10.8 12.4-9.2 20.4.8 3.8 2.5 6.7 4.9 9a72 72 0 0 1-9.8.6 32 32 0 0 1-15.8-3.4c-5.2-3-9-9.4-8-15.5 1-4.9 5.2-8.7 9.6-10.6 3.7-1.6 9.7-2.5 12 1.6 1.4 2.4 5.1.2 3.7-2.1-4.5-7.9-15.9-5.3-21.9-.8-3.4 2.5-6.3 6-7.3 10.2-.9 3.5-.3 7.2 1 10.5C168.4 391 181 394.1 192 394c4.6 0 9.2-.5 13.8-1.2 7.8 4 18.4 4.1 26.2 2.8 20.1-3.3 37.8-14 56-22.6a151 151 0 0 1 22.2-8.8c2.8 2 5 4.7 5 8.3-.2 3.4-2.7 8.3-6.7 7.7-2.7-.4-3.9 3.7-1.2 4 7.8 1.2 12.9-6.7 12-13.8-.5-3-2-5.5-4-7.5a55.9 55.9 0 0 1 31.5.8c8.8 3 17.2 11.4 14.6 21.5-1 4-4 6.9-8 7.8-3.6.8-7.7-.2-9.8-3.5-1.4-2.3-5-.2-3.6 2.2 3.8 6 12 7.2 18.1 4 7.4-3.6 9.3-12.8 7-20.2-6-19-31.5-20.3-47.7-17.3zm-57.2 23.6a117 117 0 0 1-29 9.7 42 42 0 0 1-17.6-.4c4.5-1.1 8.9-2.5 13.1-4.2 17-6.7 31.8-18.2 49.4-23.7a49.5 49.5 0 0 1 28.4-1.6c-15.4 5.1-29.6 13.5-44.3 20.2z"/></svg>