<svg xmlns="http://www.w3.org/2000/svg" width="752pt" height="752pt"><path d="M358.97 366.47a1.64 1.64 0 0 0-2.31.22 15.92 15.92 0 0 0-3.38 9.04H200.46v-5.46a1.64 1.64 0 1 0-3.27 0v5.46h-3.35c-15.07-13.62-30.23-.54-30.38-.4a1.6 1.6 0 0 0-.57 1.27c.02.48.24.93.62 1.24 6.21 4.97 11.78 6.6 16.4 6.6 7.14 0 12.06-3.86 13.76-5.43h3.5v5.46a1.63 1.63 0 1 0 3.28 0V379H353.3c.07 0 .13-.04.2-.04.4 2.2 1.34 4.52 3.12 6.8.33.42.8.63 1.3.63a1.64 1.64 0 0 0 1.3-2.65c-5.92-7.58-.28-14.67-.04-14.98.59-.69.5-1.72-.2-2.3zm-191.72 10.08c3.76-2.54 13.41-7.42 23.41.76-3.05 2.52-11.56 7.65-23.41-.76zm421.31-1.23c-.15-.13-15.31-13.22-30.39.4h-3.34v-5.46a1.64 1.64 0 1 0-3.28 0v5.46H398.73a15.98 15.98 0 0 0-3.37-9.04 1.64 1.64 0 1 0-2.53 2.1c.24.3 5.93 7.34-.03 14.98a1.64 1.64 0 1 0 2.58 2.02 15.5 15.5 0 0 0 3.13-6.8c.07 0 .13.03.2.03h152.85v5.46a1.63 1.63 0 1 0 3.27 0v-5.46h3.51a20.75 20.75 0 0 0 13.75 5.43c4.64 0 10.2-1.63 16.41-6.6a1.66 1.66 0 0 0 .07-2.52zm-27.21 1.99c9.99-8.19 19.64-3.3 23.4-.76-11.85 8.41-20.37 3.27-23.4.76zm-197.12-.69c-.2-4.45 3.32-8.18 3.38-8.25a1.64 1.64 0 0 0-2.35-2.28c-.18.19-4.56 4.76-4.3 10.65.14 3.44 1.82 6.56 4.95 9.28a1.64 1.64 0 0 0 2.14-2.48c-2.42-2.1-3.7-4.42-3.82-6.92zm20.2-10.57a1.64 1.64 0 0 0-.03 2.32c.04.04 3.57 3.73 3.38 8.22-.1 2.5-1.4 4.84-3.83 6.94a1.64 1.64 0 1 0 2.14 2.48c3.14-2.72 4.81-5.84 4.96-9.28.25-5.89-4.12-10.46-4.3-10.65a1.64 1.64 0 0 0-2.32-.03z"/></svg>